Coordinates
version=1
nRows=49
nColumns=12
inDegrees=yes

Units are S.I. units (second, meters, Newtons, ...)
Angles are in degrees

endheader
time	SC_y	SC_z	SC_x	AC_y	AC_z	AC_x	GH_y	GH_z	GH_yy	EL_x	PS_y
       0.0              -38.46          9.846          8.453           36.2           9.86          8.755          72.57          70.87         -45.25          134.2          73.08
   0.03273              -38.46          9.845          8.463           36.2          9.856          8.753          72.57          70.86         -45.23          134.1          73.09
   0.06546              -38.45          9.845          8.474           36.2          9.852          8.751          72.57          70.85         -45.21          134.1           73.1
   0.09819              -38.45          9.844          8.485           36.2          9.848          8.748          72.58          70.84         -45.19          134.1          73.11
    0.1309              -38.45          9.843          8.497           36.2          9.844          8.746          72.58          70.83         -45.16          134.1          73.12
    0.1636              -38.45          9.842          8.509           36.2          9.839          8.743          72.59          70.82         -45.14          134.1          73.12
    0.1964              -38.44          9.842          8.523           36.2          9.834           8.74          72.59           70.8         -45.11          134.0          73.13
    0.2291              -38.44          9.841          8.537           36.2          9.828          8.737           72.6          70.79         -45.08          134.0          73.14
    0.2618              -38.44           9.84          8.553           36.2          9.822          8.734          72.61          70.77         -45.05          134.0          73.16
    0.2946              -38.43          9.839          8.569           36.2          9.816          8.731          72.61          70.76         -45.02          134.0          73.17
    0.3273              -38.43          9.838          8.587           36.2          9.809          8.727          72.62          70.74         -44.98          133.9          73.18
      0.36              -38.43          9.837          8.606           36.2          9.802          8.723          72.63          70.72         -44.94          133.9           73.2
    0.3927              -38.42          9.836          8.627           36.2          9.794          8.719          72.63           70.7          -44.9          133.9          73.21
    0.4255              -38.42          9.834          8.649          36.21          9.786          8.714          72.64          70.68         -44.86          133.8          73.23
    0.4582              -38.41          9.833          8.674          36.21          9.776          8.709          72.65          70.65         -44.81          133.8          73.25
    0.4909              -38.41          9.831            8.7          36.21          9.766          8.704          72.66          70.63         -44.76          133.8          73.26
    0.5237               -38.4           9.83          8.728          36.21          9.756          8.698          72.68           70.6          -44.7          133.7          73.29
    0.5564              -38.39          9.828          8.759          36.21          9.744          8.691          72.69          70.57         -44.64          133.7          73.31
    0.5891              -38.39          9.826          8.793          36.21          9.731          8.684           72.7          70.53         -44.57          133.6          73.33
    0.6218              -38.38          9.824           8.83          36.21          9.717          8.677          72.72          70.49         -44.49          133.6          73.36
    0.6546              -38.37          9.821          8.871          36.22          9.701          8.668          72.73          70.45         -44.41          133.5          73.39
    0.6873              -38.36          9.819          8.916          36.22          9.684          8.659          72.75          70.41         -44.32          133.4          73.42
      0.72              -38.35          9.816          8.966          36.22          9.665          8.648          72.77          70.36         -44.22          133.3          73.46
    0.7528              -38.34          9.813          9.021          36.22          9.644          8.637          72.79           70.3         -44.11          133.2           73.5
    0.7855              -38.33          9.809          9.082          36.23          9.621          8.624          72.82          70.24         -43.99          133.1          73.54
    0.8182              -38.31          9.805           9.15          36.23          9.595           8.61          72.84          70.18         -43.85          133.0          73.59
    0.8509              -38.29          9.801          9.226          36.23          9.566          8.594          72.87           70.1          -43.7          132.9          73.65
    0.8837              -38.28          9.796          9.312          36.24          9.534          8.577          72.91          70.01         -43.53          132.8          73.71
    0.9164              -38.26           9.79          9.409          36.24          9.497          8.556          72.95          69.92         -43.33          132.6          73.78
    0.9491              -38.23          9.784          9.519          36.25          9.455          8.533          72.99          69.81         -43.11          132.4          73.87
    0.9819              -38.21          9.777          9.645          36.25          9.407          8.507          73.04          69.68         -42.86          132.2          73.96
     1.015              -38.17          9.768          9.789          36.26          9.353          8.477           73.1          69.54         -42.57          132.0          74.06
     1.047              -38.14          9.758          9.956          36.27          9.289          8.443          73.17          69.37         -42.24          131.7          74.19
      1.08               -38.1          9.747          10.15          36.28          9.216          8.403          73.24          69.18         -41.85          131.4          74.33
     1.113              -38.05          9.734          10.38          36.29           9.13          8.356          73.33          68.95          -41.4          131.1          74.49
     1.146              -37.99          9.719          10.64           36.3          9.028            8.3          73.44          68.69         -40.86          130.6          74.69
     1.178              -37.92            9.7          10.96          36.32          8.908          8.234          73.57          68.37         -40.22          130.1          74.92
     1.211              -37.84          9.678          11.34          36.33          8.763          8.155          73.72          67.99         -39.46          129.5           75.2
     1.244              -37.75          9.651           11.8          36.36          8.589           8.06           73.9          67.53         -38.54          128.8          75.54
     1.276              -37.63          9.619          12.36          36.38          8.375          7.943          74.13          66.97         -37.41          127.8          75.95
     1.309              -37.48          9.578          13.06          36.42          8.112          7.799           74.4          66.28         -36.02          126.7          76.46
     1.342              -37.29          9.528          13.92          36.46          7.783          7.619          74.75          65.41         -34.28          125.3           77.1
     1.375              -37.06          9.465          15.01          36.51          7.369          7.393          75.18          64.33          -32.1          123.6           77.9
     1.407              -36.77          9.384           16.4          36.58          6.843          7.105          75.74          62.94         -29.32          121.3          78.91
      1.44              -36.39          9.281          18.17          36.66          6.169          6.736          76.44          61.17         -25.76          118.5          80.22
     1.473               -35.9          9.149          20.44          36.77          5.305          6.264          77.35           58.9          -21.2          114.8          81.89
     1.506              -35.29           8.98          23.35          36.91          4.201           5.66          78.51           56.0         -15.37          110.1          84.02
     1.538              -34.51          8.768           27.0          37.08          2.813          4.901          79.97          52.36         -8.037          104.2           86.7
     1.571              -33.56          8.509          31.46           37.3          1.121          3.975          81.75          47.91         0.8964           97.0          89.97
